<svg t="1610639784057" class="icon" viewBox="0 0 1024 1024" version="1.1" xmlns="http://www.w3.org/2000/svg" p-id="3431" width="64" height="64"><path d="M800 256c35.346 0 64 28.654 64 64v64h32c35.346 0 64 28.654 64 64v128c0 35.346-28.654 64-64 64h-32v64c0 35.346-28.654 64-64 64H128c-35.346 0-64-28.654-64-64V320c0-35.346 28.654-64 64-64h672z m96 320V448h-96V320H128v384h672V576h96z" p-id="3432"></path><path d="M164 356m24 0l552 0q24 0 24 24l0 264q0 24-24 24l-552 0q-24 0-24-24l0-264q0-24 24-24Z" p-id="3433"></path></svg>